<svg id="Layer_1" data-name="Layer 1" xmlns="http://www.w3.org/2000/svg" viewBox="0 0 568.4 174.97"><defs><style>.cls-1{fill:#fff;}</style></defs><title>dtdlaw_logo_white</title><path class="cls-1" d="M.1,61.59q0-15.37,7.28-24.72a23,23,0,0,1,19.06-9.35q11.73,0,18.58,8V.74H56.43V95.52H45.94l-.55-7.15q-6.86,8.38-19.07,8.39-11.59,0-18.91-9.51T.1,62.45Zm11.41,1.29q0,11.35,4.69,17.77a15.17,15.17,0,0,0,13,6.42Q40,87.07,45,77.32V46.65q-5.13-9.43-15.74-9.44A15.24,15.24,0,0,0,16.2,43.69Q11.51,50.17,11.51,62.88ZM115.36,95.52a23.84,23.84,0,0,1-1.6-7,25.5,25.5,0,0,1-19,8.27q-9.87,0-16.2-5.59A18.07,18.07,0,0,1,72.23,77q0-10.42,7.93-16.2T102.46,55h11.11V49.8q0-6-3.58-9.53T99.44,36.72A16.67,16.67,0,0,0,89.2,39.8q-4.14,3.09-4.14,7.47H73.59a15.8,15.8,0,0,1,3.54-9.66,24.32,24.32,0,0,1,9.63-7.37,32.4,32.4,0,0,1,13.36-2.72q11.53,0,18.08,5.77T125,49.18V79.91q0,9.2,2.34,14.63v1Zm-18.94-8.7a20.06,20.06,0,0,0,10.18-2.77,16.84,16.84,0,0,0,7-7.22V63.13h-8.95q-21,0-21,12.28a10.41,10.41,0,0,0,3.58,8.39A13.8,13.8,0,0,0,96.42,86.82ZM164,80l16.54-51.28h11.66L168.24,95.52h-8.7L135.35,28.76H147Zm51.59,15.48H204.15V28.76h11.42ZM203.23,11.05a6.81,6.81,0,0,1,1.69-4.69,6.37,6.37,0,0,1,5-1.91A6.44,6.44,0,0,1,215,6.36a6.7,6.7,0,0,1,1.73,4.69A6.5,6.5,0,0,1,215,15.68,6.59,6.59,0,0,1,210,17.53a6.52,6.52,0,0,1-5-1.85A6.61,6.61,0,0,1,203.23,11.05Zm58.31,85.71q-13.58,0-22.09-8.92T230.93,64v-2.1a40.09,40.09,0,0,1,3.8-17.74,29.63,29.63,0,0,1,10.61-12.21,26.63,26.63,0,0,1,14.78-4.42q13,0,20.24,8.58t7.22,24.56v4.75H242.35q.24,9.87,5.77,16a18.14,18.14,0,0,0,14,6.08A19.84,19.84,0,0,0,272.4,85a25.56,25.56,0,0,0,7.34-6.54l7,5.43Q278.33,96.76,261.54,96.76ZM260.12,36.9a15.24,15.24,0,0,0-11.6,5q-4.7,5-5.8,14.1h33.44v-.86q-.5-8.7-4.69-13.48T260.12,36.9Zm79.54,40.91a8.37,8.37,0,0,0-3.49-7.18c-2.32-1.71-6.38-3.18-12.15-4.42a57.38,57.38,0,0,1-13.77-4.44,19.52,19.52,0,0,1-7.52-6.17,14.73,14.73,0,0,1-2.44-8.52q0-8.2,6.94-13.88T325,27.52q11.36,0,18.42,5.87a18.6,18.6,0,0,1,7.07,15H339a10.3,10.3,0,0,0-4-8.08,14.88,14.88,0,0,0-10-3.4q-6.23,0-9.75,2.72a8.54,8.54,0,0,0-3.51,7.09A6.93,6.93,0,0,0,315,53q3.27,2.1,11.81,4a61.07,61.07,0,0,1,13.85,4.56,20.23,20.23,0,0,1,7.87,6.39,15.68,15.68,0,0,1,2.56,9.1,17.07,17.07,0,0,1-7.16,14.35q-7.16,5.4-18.57,5.4a33.63,33.63,0,0,1-14.19-2.84A23.16,23.16,0,0,1,301.49,86,19.13,19.13,0,0,1,298,75h11.41a11.85,11.85,0,0,0,4.6,9.1q4.29,3.36,11.32,3.36,6.48,0,10.4-2.62A8.08,8.08,0,0,0,339.66,77.81Zm23.88-6.41a21,21,0,0,1,3.61-11.91q3.6-5.43,13.79-12.65-6-7.29-8-11.73a21,21,0,0,1-2-8.82q0-10.24,6.05-16t16.41-5.8q9.26,0,15.3,5.4a17.46,17.46,0,0,1,6.05,13.6,19.23,19.23,0,0,1-2.75,10q-2.74,4.59-9.59,9.66L395.75,48l20,23.88a37.85,37.85,0,0,0,4.2-17.83h10.3q0,15.73-7.59,26.1l12.83,15.36H421.79l-6-7.09a31.33,31.33,0,0,1-10.7,6.2,37.92,37.92,0,0,1-12.5,2.13q-13.14,0-21.1-7T363.54,71.4Zm29.06,16q9.07,0,16.6-6.91L387.29,54.3l-2,1.49Q375,63.37,375,71.4q0,7.27,4.72,11.66T392.6,87.44ZM382.3,25.92q0,5.92,7.28,14.81l7.28-5.12A19.56,19.56,0,0,0,402.6,30a13,13,0,0,0,1.54-6.51,8.83,8.83,0,0,0-3.09-6.88,11.23,11.23,0,0,0-7.77-2.74,10.06,10.06,0,0,0-8,3.42A12.74,12.74,0,0,0,382.3,25.92Zm89,61.52A16.44,16.44,0,0,0,482,83.74,13.06,13.06,0,0,0,487,74.48h10.8a20.76,20.76,0,0,1-3.95,10.92,26,26,0,0,1-9.72,8.27,28,28,0,0,1-12.87,3.09q-13.63,0-21.69-9.1t-8.05-24.9V60.84a40.13,40.13,0,0,1,3.58-17.33,27.32,27.32,0,0,1,10.27-11.79,29.18,29.18,0,0,1,15.83-4.2q11.24,0,18.67,6.73a24.05,24.05,0,0,1,7.93,17.46H487a15.74,15.74,0,0,0-4.91-10.64,15.24,15.24,0,0,0-10.89-4.17q-8.7,0-13.48,6.27T453,61.28v2.16Q453,75,457.7,81.21T471.27,87.44Zm36.35-25.92a39.4,39.4,0,0,1,3.85-17.64,28.81,28.81,0,0,1,10.74-12.1,29.22,29.22,0,0,1,15.7-4.26q13.65,0,22.06,9.45t8.43,25.11v.8a39.74,39.74,0,0,1-3.74,17.49A28.31,28.31,0,0,1,554,92.44a29.58,29.58,0,0,1-16,4.32q-13.57,0-22-9.44t-8.42-25Zm11.47,1.36q0,11.12,5.16,17.83a17.45,17.45,0,0,0,27.61-.09Q557,73.81,557,61.52q0-11-5.21-17.8a16.61,16.61,0,0,0-13.86-6.82,16.39,16.39,0,0,0-13.63,6.73Q519.09,50.35,519.09,62.88Z" transform="translate(0 -0.74)"/><path class="cls-1" d="M11.49,175.72c-3.66,0-6.48-1.13-8.49-3.37s-3-5.44-3-9.56S1,155.3,3.05,153s4.93-3.46,8.69-3.46a16.64,16.64,0,0,1,3.64.4,11.47,11.47,0,0,1,2.86.91l-1.17,3.26a16.09,16.09,0,0,0-2.77-.85,12.49,12.49,0,0,0-2.65-.33q-7.7,0-7.7,9.81,0,4.66,1.88,7.16a6.57,6.57,0,0,0,5.57,2.48A17,17,0,0,0,17.88,171v3.39A13.89,13.89,0,0,1,11.49,175.72ZM35.4,149.54a15.41,15.41,0,0,1,3,.27l-.54,3.56a13.09,13.09,0,0,0-2.77-.35,6.71,6.71,0,0,0-5.24,2.5,9,9,0,0,0-2.17,6.19v13.55H23.88V150H27l.44,4.68h.19A11,11,0,0,1,31,150.89,7.54,7.54,0,0,1,35.4,149.54ZM47,175.26H43.14V150H47Zm-4.16-32.1a2.52,2.52,0,0,1,.65-1.92,2.39,2.39,0,0,1,3.19,0,2.49,2.49,0,0,1,.68,1.92,2.55,2.55,0,0,1-.68,1.93,2.33,2.33,0,0,1-3.19,0A2.62,2.62,0,0,1,42.81,143.16Zm44.45,32.1V158.82A6.74,6.74,0,0,0,86,154.3a4.94,4.94,0,0,0-4-1.52q-3.57,0-5.27,2.06c-1.14,1.37-1.71,3.47-1.71,6.32v14.1H71.15V158.82a6.79,6.79,0,0,0-1.29-4.52,5,5,0,0,0-4-1.52c-2.4,0-4.15.72-5.27,2.17S58.9,158.74,58.9,162v13.25H55.08V150h3.1l.63,3.46H59A7.54,7.54,0,0,1,62,150.59a9.32,9.32,0,0,1,4.43-1.05q5.92,0,7.74,4.29h.18a8.16,8.16,0,0,1,3.27-3.13,10.19,10.19,0,0,1,4.9-1.16q4.29,0,6.4,2.2t2.13,7v16.47Zm15.54,0H99V150h3.82Zm-4.15-32.1a2.48,2.48,0,0,1,.65-1.92,2.39,2.39,0,0,1,3.19,0,2.49,2.49,0,0,1,.68,1.92,2.55,2.55,0,0,1-.68,1.93,2.33,2.33,0,0,1-3.19,0A2.58,2.58,0,0,1,98.65,143.16Zm29.54,32.1V158.92a6.59,6.59,0,0,0-1.4-4.6,5.68,5.68,0,0,0-4.4-1.54q-4,0-5.81,2.15T114.74,162v13.25h-3.82V150H114l.63,3.46h.17a7.88,7.88,0,0,1,3.3-2.89,10.79,10.79,0,0,1,4.73-1c3.05,0,5.33.73,6.86,2.2s2.31,3.81,2.31,7v16.47Zm27.22,0-.76-3.59h-.18a10.65,10.65,0,0,1-3.77,3.21,11.56,11.56,0,0,1-4.7.84,8.47,8.47,0,0,1-5.88-1.93,7.11,7.11,0,0,1-2.13-5.52q0-7.65,12.23-8l4.29-.14v-1.57a6.38,6.38,0,0,0-1.28-4.38,5.26,5.26,0,0,0-4.08-1.42,16.67,16.67,0,0,0-7.15,1.93l-1.18-2.92a18.45,18.45,0,0,1,8.55-2.17c3,0,5.25.67,6.7,2s2.18,3.46,2.18,6.41v17.25Zm-8.63-2.7a7.78,7.78,0,0,0,5.61-1.95,7.26,7.26,0,0,0,2-5.5v-2.27l-3.83.15c-3,.12-5.24.59-6.59,1.43a4.26,4.26,0,0,0-2,3.9,4,4,0,0,0,1.25,3.16A5.26,5.26,0,0,0,146.78,172.56Zm23.18,2.7h-3.83V139.4H170Zm37.55-3.38h-.2a9,9,0,0,1-7.92,3.84,9.39,9.39,0,0,1-7.72-3.39q-2.74-3.37-2.75-9.64t2.77-9.69a9.32,9.32,0,0,1,7.7-3.46,9.18,9.18,0,0,1,7.87,3.73h.3l-.16-1.81-.09-1.78V139.4h3.82v35.86H208Zm-7.65.63q3.93,0,5.68-2.12t1.77-6.89v-.81q0-5.35-1.79-7.65c-1.19-1.52-3.09-2.29-5.71-2.29a5.86,5.86,0,0,0-5.15,2.61q-1.78,2.61-1.78,7.38c0,3.22.59,5.66,1.77,7.3A6,6,0,0,0,199.86,172.51Zm30.06,3.21a11.67,11.67,0,0,1-8.85-3.4q-3.23-3.42-3.22-9.48t3-9.69a10,10,0,0,1,8.08-3.61,9.51,9.51,0,0,1,7.5,3.13,11.92,11.92,0,0,1,2.77,8.24v2.42H221.8q.12,4.44,2.24,6.74a7.78,7.78,0,0,0,6,2.31,20.48,20.48,0,0,0,8.07-1.7v3.41a20.84,20.84,0,0,1-3.84,1.25A21.67,21.67,0,0,1,229.92,175.72Zm-1-23a6.27,6.27,0,0,0-4.85,2,9.09,9.09,0,0,0-2.14,5.48h13.22a8.33,8.33,0,0,0-1.62-5.53A5.65,5.65,0,0,0,228.88,152.75Zm28.23.22h-6.43v22.29h-3.83V153h-4.52v-1.72l4.52-1.39v-1.41q0-9.3,8.14-9.31a16.61,16.61,0,0,1,4.7.81l-1,3.06a12.78,12.78,0,0,0-3.78-.71,3.68,3.68,0,0,0-3.2,1.44,8.07,8.07,0,0,0-1,4.63V150h6.43Zm15.28,22.75a11.67,11.67,0,0,1-8.85-3.4q-3.23-3.42-3.22-9.48t3-9.69a10,10,0,0,1,8.08-3.61,9.55,9.55,0,0,1,7.51,3.13,12,12,0,0,1,2.76,8.24v2.42h-17.4q.12,4.44,2.24,6.74a7.79,7.79,0,0,0,6,2.31,20.57,20.57,0,0,0,8.08-1.7v3.41a21.34,21.34,0,0,1-3.84,1.25A21.85,21.85,0,0,1,272.39,175.72Zm-1-23a6.27,6.27,0,0,0-4.85,2,9.21,9.21,0,0,0-2.14,5.48h13.22a8.38,8.38,0,0,0-1.61-5.53A5.69,5.69,0,0,0,271.35,152.75Zm34.13,22.51V158.92a6.55,6.55,0,0,0-1.41-4.6,5.66,5.66,0,0,0-4.39-1.54c-2.65,0-4.58.72-5.82,2.15S292,158.73,292,162v13.25H288.2V150h3.1l.63,3.46h.18a7.88,7.88,0,0,1,3.3-2.89,10.76,10.76,0,0,1,4.73-1q4.56,0,6.86,2.2c1.54,1.46,2.3,3.81,2.3,7v16.47Zm21.78.46c-3.66,0-6.49-1.13-8.49-3.37s-3-5.44-3-9.56,1-7.49,3.06-9.79,4.93-3.46,8.69-3.46a16.61,16.61,0,0,1,3.63.4,11.33,11.33,0,0,1,2.86.91l-1.16,3.26a16.65,16.65,0,0,0-2.77-.85,12.58,12.58,0,0,0-2.66-.33q-7.7,0-7.69,9.81c0,3.11.62,5.5,1.88,7.16a6.55,6.55,0,0,0,5.56,2.48,16.94,16.94,0,0,0,6.48-1.36v3.39A13.82,13.82,0,0,1,327.26,175.72Zm23.05,0a11.67,11.67,0,0,1-8.85-3.4q-3.22-3.42-3.23-9.48t3-9.69a9.94,9.94,0,0,1,8.07-3.61,9.53,9.53,0,0,1,7.51,3.13,11.92,11.92,0,0,1,2.77,8.24v2.42h-17.4q.12,4.44,2.24,6.74a7.76,7.76,0,0,0,6,2.31,20.52,20.52,0,0,0,8.07-1.7v3.41a21.34,21.34,0,0,1-3.84,1.25A21.67,21.67,0,0,1,350.31,175.72Zm-1-23a6.29,6.29,0,0,0-4.86,2,9.15,9.15,0,0,0-2.13,5.48h13.21a8.33,8.33,0,0,0-1.61-5.53A5.65,5.65,0,0,0,349.27,152.75Zm45.39,15.62A6.33,6.33,0,0,1,392,173.8q-2.62,1.92-7.37,1.92a16.19,16.19,0,0,1-7.84-1.58v-3.56a18.89,18.89,0,0,0,3.9,1.45,16.53,16.53,0,0,0,4,.53,9.19,9.19,0,0,0,4.61-.95,3.19,3.19,0,0,0,1.62-2.93,3.15,3.15,0,0,0-1.28-2.51,19.91,19.91,0,0,0-5-2.48,27.54,27.54,0,0,1-5-2.29,6.86,6.86,0,0,1-2.21-2.22,5.84,5.84,0,0,1-.71-3,5.67,5.67,0,0,1,2.49-4.87,11.75,11.75,0,0,1,6.9-1.79,20.35,20.35,0,0,1,8,1.66l-1.36,3.12a18.26,18.26,0,0,0-6.89-1.57,8,8,0,0,0-4.11.85,2.61,2.61,0,0,0-1.38,2.34,2.94,2.94,0,0,0,.52,1.74,5.26,5.26,0,0,0,1.66,1.36,40.69,40.69,0,0,0,4.43,1.87c3,1.08,5,2.18,6.07,3.28A5.84,5.84,0,0,1,394.66,168.37Zm28-5.76q0,6.16-3.11,9.65a11,11,0,0,1-8.6,3.46,11.51,11.51,0,0,1-6-1.58,10.56,10.56,0,0,1-4-4.57,15.93,15.93,0,0,1-1.42-7q0-6.18,3.08-9.62t8.57-3.45a10.66,10.66,0,0,1,8.42,3.53Q422.69,156.59,422.69,162.61Zm-19.25,0c0,3.23.64,5.68,1.93,7.37a7.72,7.72,0,0,0,11.41,0c1.3-1.69,1.94-4.15,1.94-7.39s-.64-5.65-1.94-7.31a6.82,6.82,0,0,0-5.75-2.52,6.74,6.74,0,0,0-5.68,2.47C404.08,156.89,403.44,159.35,403.44,162.61Zm29.79,12.65H429.4V139.4h3.83Zm11.93,0h-3.82V150h3.82ZM441,143.16a2.51,2.51,0,0,1,.64-1.92,2.4,2.4,0,0,1,3.2,0,2.49,2.49,0,0,1,.68,1.92,2.55,2.55,0,0,1-.68,1.93,2.35,2.35,0,0,1-3.2,0A2.61,2.61,0,0,1,441,143.16Zm22.35,32.56c-3.66,0-6.49-1.13-8.49-3.37s-3-5.44-3-9.56,1-7.49,3.05-9.79,4.93-3.46,8.69-3.46a16.7,16.7,0,0,1,3.64.4,11.61,11.61,0,0,1,2.86.91l-1.17,3.26a16.36,16.36,0,0,0-2.77-.85,12.49,12.49,0,0,0-2.65-.33q-7.69,0-7.7,9.81,0,4.66,1.88,7.16a6.57,6.57,0,0,0,5.57,2.48,17,17,0,0,0,6.48-1.36v3.39A13.89,13.89,0,0,1,463.36,175.72Zm16.21-.46h-3.82V150h3.82Zm-4.16-32.1a2.52,2.52,0,0,1,.65-1.92,2.39,2.39,0,0,1,3.19,0,2.46,2.46,0,0,1,.68,1.92,2.51,2.51,0,0,1-.68,1.93,2.33,2.33,0,0,1-3.19,0A2.62,2.62,0,0,1,475.41,143.16Zm20.43,29.4a12.2,12.2,0,0,0,1.94-.15,14.08,14.08,0,0,0,1.5-.31V175a6.52,6.52,0,0,1-1.83.49,12.65,12.65,0,0,1-2.16.21q-7.34,0-7.34-7.72V153h-3.62v-1.85l3.62-1.58,1.61-5.39h2.22V150h7.33v3h-7.33v14.88a5.1,5.1,0,0,0,1.07,3.49A3.82,3.82,0,0,0,495.84,172.56Zm30.3-9.95q0,6.16-3.11,9.65a11,11,0,0,1-8.6,3.46,11.51,11.51,0,0,1-6-1.58,10.56,10.56,0,0,1-4.05-4.57,15.93,15.93,0,0,1-1.42-7q0-6.18,3.08-9.62t8.57-3.45a10.66,10.66,0,0,1,8.42,3.53Q526.15,156.59,526.14,162.61Zm-19.25,0c0,3.23.64,5.68,1.93,7.37a7.72,7.72,0,0,0,11.41,0c1.3-1.69,1.94-4.15,1.94-7.39s-.64-5.65-1.94-7.31a6.82,6.82,0,0,0-5.75-2.52,6.74,6.74,0,0,0-5.68,2.47C507.53,156.89,506.89,159.35,506.89,162.61Zm37.48-13.07a15.34,15.34,0,0,1,3,.27l-.54,3.56a13,13,0,0,0-2.76-.35,6.73,6.73,0,0,0-5.25,2.5,9.09,9.09,0,0,0-2.16,6.19v13.55h-3.83V150H536l.44,4.68h.19a11,11,0,0,1,3.38-3.79A7.57,7.57,0,0,1,544.37,149.54Zm24,18.83a6.31,6.31,0,0,1-2.63,5.43q-2.62,1.92-7.36,1.92a16.17,16.17,0,0,1-7.84-1.58v-3.56a18.89,18.89,0,0,0,3.9,1.45,16.46,16.46,0,0,0,4,.53,9.19,9.19,0,0,0,4.61-.95,3.18,3.18,0,0,0,1.61-2.93,3.13,3.13,0,0,0-1.28-2.51,19.54,19.54,0,0,0-5-2.48,27.37,27.37,0,0,1-5-2.29,6.86,6.86,0,0,1-2.21-2.22,5.85,5.85,0,0,1-.72-3,5.68,5.68,0,0,1,2.5-4.87,11.72,11.72,0,0,1,6.89-1.79,20.4,20.4,0,0,1,8,1.66l-1.36,3.12a18.27,18.27,0,0,0-6.9-1.57,8.08,8.08,0,0,0-4.11.85,2.62,2.62,0,0,0-1.37,2.34,2.87,2.87,0,0,0,.52,1.74,5.15,5.15,0,0,0,1.66,1.36,40.69,40.69,0,0,0,4.43,1.87c3,1.08,5,2.18,6.07,3.28A5.84,5.84,0,0,1,568.4,168.37Z" transform="translate(0 -0.74)"/></svg>