<svg version="1.1" viewBox="0.0 0.0 619.2257217847769 246.62992125984252" fill="none" stroke="none" stroke-linecap="square" stroke-miterlimit="10" xmlns:xlink="http://www.w3.org/1999/xlink" xmlns="http://www.w3.org/2000/svg"><clipPath id="p.0"><path d="m0 0l619.2257 0l0 246.62993l-619.2257 0l0 -246.62993z" clip-rule="nonzero"/></clipPath><g clip-path="url(#p.0)"><path fill="#000000" fill-opacity="0.0" d="m0 0l619.2257 0l0 246.62993l-619.2257 0z" fill-rule="evenodd"/><path fill="#000000" fill-opacity="0.0" d="m0 0l656.34644 0l0 149.88977l-656.34644 0z" fill-rule="evenodd"/><path fill="#163f4a" d="m14.9375 97.505005q0 -15.5625 7.375 -25.03125q7.375 -9.46875 19.3125 -9.46875q11.875 0 18.8125 8.125l0 -35.25l11.5625 0l0 96.0l-10.625 0l-0.5625 -7.25q-6.9375 8.5 -19.3125 8.5q-11.75 0 -19.15625 -9.625q-7.40625 -9.625 -7.40625 -25.125l0 -0.875zm11.5625 1.3125q0 11.5 4.75 18.0q4.75 6.5 13.125 6.5q11.0 0 16.0625 -9.875l0 -31.0625q-5.1875 -9.5625 -15.9375 -9.5625q-8.5 0 -13.25 6.5625q-4.75 6.5625 -4.75 19.4375zm105.1875 33.0625q-1.0 -2.0 -1.625 -7.125q-8.0625 8.375 -19.25 8.375q-10.0 0 -16.40625 -5.65625q-6.40625 -5.65625 -6.40625 -14.34375q0 -10.5625 8.03125 -16.40625q8.03125 -5.84375 22.59375 -5.84375l11.25 0l0 -5.3125q0 -6.0625 -3.625 -9.65625q-3.625 -3.59375 -10.6875 -3.59375q-6.1875 0 -10.375 3.125q-4.1875 3.125 -4.1875 7.5625l-11.625 0q0 -5.0625 3.59375 -9.78125q3.59375 -4.71875 9.75 -7.46875q6.15625 -2.75 13.53125 -2.75q11.6875 0 18.3125 5.84375q6.625 5.84375 6.875 16.09375l0 31.125q0 9.3125 2.375 14.8125l0 1.0l-12.125 0zm-19.1875 -8.8125q5.4375 0 10.3125 -2.8125q4.875 -2.8125 7.0625 -7.3125l0 -13.875l-9.0625 0q-21.25 0 -21.25 12.4375q0 5.4375 3.625 8.5q3.625 3.0625 9.3125 3.0625zm68.4375 -6.875l16.75 -51.9375l11.8125 0l-24.25 67.625l-8.8125 0l-24.5 -67.625l11.8125 0l17.1875 51.9375zm52.25 15.6875l-11.5625 0l0 -67.625l11.5625 0l0 67.625zm-12.5 -85.5625q0 -2.8125 1.71875 -4.75q1.71875 -1.9375 5.09375 -1.9375q3.375 0 5.125 1.9375q1.75 1.9375 1.75 4.75q0 2.8125 -1.75 4.6875q-1.75 1.875 -5.125 1.875q-3.375 0 -5.09375 -1.875q-1.71875 -1.875 -1.71875 -4.6875zm59.0625 86.8125q-13.75 0 -22.375 -9.03125q-8.625 -9.03125 -8.625 -24.15625l0 -2.125q0 -10.0625 3.84375 -17.96875q3.84375 -7.90625 10.75 -12.375q6.90625 -4.46875 14.96875 -4.46875q13.1875 0 20.5 8.6875q7.3125 8.6875 7.3125 24.875l0 4.8125l-45.8125 0q0.25 10.0 5.84375 16.15625q5.59375 6.15625 14.21875 6.15625q6.125 0 10.375 -2.5q4.25 -2.5 7.4375 -6.625l7.0625 5.5q-8.5 13.0625 -25.5 13.0625zm-1.4375 -60.625q-7.0 0 -11.75 5.09375q-4.75 5.09375 -5.875 14.28125l33.875 0l0 -0.875q-0.5 -8.8125 -4.75 -13.65625q-4.25 -4.84375 -11.5 -4.84375zm80.5625 41.4375q0 -4.6875 -3.53125 -7.28125q-3.53125 -2.59375 -12.3125 -4.46875q-8.78125 -1.875 -13.9375 -4.5q-5.15625 -2.625 -7.625 -6.25q-2.46875 -3.625 -2.46875 -8.625q0 -8.3125 7.03125 -14.0625q7.03125 -5.75 17.96875 -5.75q11.5 0 18.65625 5.9375q7.15625 5.9375 7.15625 15.1875l-11.625 0q0 -4.75 -4.03125 -8.1875q-4.03125 -3.4375 -10.15625 -3.4375q-6.3125 0 -9.875 2.75q-3.5625 2.75 -3.5625 7.1875q0 4.1875 3.3125 6.3125q3.3125 2.125 11.96875 4.0625q8.65625 1.9375 14.03125 4.625q5.375 2.6875 7.96875 6.46875q2.59375 3.78125 2.59375 9.21875q0 9.0625 -7.25 14.53125q-7.25 5.46875 -18.8125 5.46875q-8.125 0 -14.375 -2.875q-6.25 -2.875 -9.78125 -8.03125q-3.53125 -5.15625 -3.53125 -11.15625l11.5625 0q0.3125 5.8125 4.65625 9.21875q4.34375 3.40625 11.46875 3.40625q6.5625 0 10.53125 -2.65625q3.96875 -2.65625 3.96875 -7.09375z" fill-rule="nonzero"/><path fill="#3d5d64" d="m383.0625 107.442505q0 -6.5625 3.65625 -12.0625q3.65625 -5.5 13.96875 -12.8125q-6.0625 -7.375 -8.125 -11.875q-2.0625 -4.5 -2.0625 -8.9375q0 -10.375 6.125 -16.25q6.125 -5.875 16.625 -5.875q9.375 0 15.5 5.46875q6.125 5.46875 6.125 13.78125q0 5.5 -2.78125 10.15625q-2.78125 4.65625 -9.71875 9.78125l-6.6875 4.9375l20.25 24.1875q4.25 -8.125 4.25 -18.0625l10.4375 0q0 15.9375 -7.6875 26.4375l13.0 15.5625l-13.875 0l-6.0625 -7.1875q-4.625 4.125 -10.84375 6.28125q-6.21875 2.15625 -12.65625 2.15625q-13.3125 0 -21.375 -7.0625q-8.0625 -7.0625 -8.0625 -18.625zm29.4375 16.25q9.1875 0 16.8125 -7.0l-22.1875 -26.5625l-2.0625 1.5q-10.4375 7.6875 -10.4375 15.8125q0 7.375 4.78125 11.8125q4.78125 4.4375 13.09375 4.4375zm-10.4375 -62.3125q0 6.0 7.375 15.0l7.375 -5.1875q4.25 -3.0 5.8125 -5.71875q1.5625 -2.71875 1.5625 -6.59375q0 -4.1875 -3.125 -6.96875q-3.125 -2.78125 -7.875 -2.78125q-5.125 0 -8.125 3.46875q-3.0 3.46875 -3.0 8.78125z" fill-rule="nonzero"/><path fill="#76919d" d="m492.1875 123.692505q6.1875 0 10.8125 -3.75q4.625 -3.75 5.125 -9.375l10.9375 0q-0.3125 5.8125 -4.0 11.0625q-3.6875 5.25 -9.84375 8.375q-6.15625 3.125 -13.03125 3.125q-13.8125 0 -21.96875 -9.21875q-8.15625 -9.21875 -8.15625 -25.21875l0 -1.9375q0 -9.875 3.625 -17.5625q3.625 -7.6875 10.40625 -11.9375q6.78125 -4.25 16.03125 -4.25q11.375 0 18.90625 6.8125q7.53125 6.8125 8.03125 17.6875l-10.9375 0q-0.5 -6.5625 -4.96875 -10.78125q-4.46875 -4.21875 -11.03125 -4.21875q-8.8125 0 -13.65625 6.34375q-4.84375 6.34375 -4.84375 18.34375l0 2.1875q0 11.6875 4.8125 18.0q4.8125 6.3125 13.75 6.3125zm36.8125 -26.25q0 -9.9375 3.90625 -17.875q3.90625 -7.9375 10.875 -12.25q6.96875 -4.3125 15.90625 -4.3125q13.8125 0 22.34375 9.5625q8.53125 9.5625 8.53125 25.4375l0 0.8125q0 9.875 -3.78125 17.71875q-3.78125 7.84375 -10.8125 12.21875q-7.03125 4.375 -16.15625 4.375q-13.75 0 -22.28125 -9.5625q-8.53125 -9.5625 -8.53125 -25.3125l0 -0.8125zm11.625 1.375q0 11.25 5.21875 18.0625q5.21875 6.8125 13.96875 6.8125q8.8125 0 14.0 -6.90625q5.1875 -6.90625 5.1875 -19.34375q0 -11.125 -5.28125 -18.03125q-5.28125 -6.90625 -14.03125 -6.90625q-8.5625 0 -13.8125 6.8125q-5.25 6.8125 -5.25 19.5z" fill-rule="nonzero"/><path fill="#000000" fill-opacity="0.0" d="m11.934383 149.88058l763.74805 0l0 89.102356l-763.74805 0z" fill-rule="evenodd"/><path fill="#b4b5b8" d="m34.91876 204.1337q-5.421875 0 -8.390625 -3.328125q-2.96875 -3.34375 -2.96875 -9.453125q0 -6.265625 3.015625 -9.671875q3.015625 -3.421875 8.59375 -3.421875q1.796875 0 3.59375 0.390625q1.8125 0.375 2.828125 0.90625l-1.15625 3.21875q-1.25 -0.515625 -2.734375 -0.84375q-1.484375 -0.328125 -2.625 -0.328125q-7.609375 0 -7.609375 9.703125q0 4.609375 1.859375 7.078125q1.859375 2.453125 5.5 2.453125q3.125 0 6.40625 -1.34375l0 3.34375q-2.5 1.296875 -6.3125 1.296875zm23.633713 -25.875q1.65625 0 2.984375 0.265625l-0.53125 3.515625q-1.546875 -0.34375 -2.734375 -0.34375q-3.03125 0 -5.1875 2.46875q-2.140625 2.453125 -2.140625 6.125l0 13.390625l-3.78125 0l0 -24.96875l3.109375 0l0.4375 4.625l0.1875 0q1.390625 -2.4375 3.34375 -3.75q1.953125 -1.328125 4.3125 -1.328125zm11.435848 25.421875l-3.78125 0l0 -24.96875l3.78125 0l0 24.96875zm-4.109375 -31.734375q0 -1.296875 0.640625 -1.890625q0.640625 -0.609375 1.59375 -0.609375q0.90625 0 1.5625 0.609375q0.671875 0.609375 0.671875 1.890625q0 1.28125 -0.671875 1.90625q-0.65625 0.625 -1.5625 0.625q-0.953125 0 -1.59375 -0.625q-0.640625 -0.625 -0.640625 -1.90625zm43.941376 31.734375l0 -16.25q0 -2.984375 -1.28125 -4.46875q-1.265625 -1.5 -3.953125 -1.5q-3.53125 0 -5.21875 2.03125q-1.6875 2.03125 -1.6875 6.25l0 13.9375l-3.78125 0l0 -16.25q0 -2.984375 -1.28125 -4.46875q-1.265625 -1.5 -3.984375 -1.5q-3.546875 0 -5.203125 2.140625q-1.640625 2.125 -1.640625 6.984375l0 13.09375l-3.78125 0l0 -24.96875l3.0625 0l0.625 3.421875l0.171875 0q1.078125 -1.828125 3.015625 -2.84375q1.953125 -1.03125 4.375 -1.03125q5.859375 0 7.65625 4.234375l0.171875 0q1.125 -1.953125 3.234375 -3.09375q2.125 -1.140625 4.84375 -1.140625q4.234375 0 6.328125 2.171875q2.109375 2.171875 2.109375 6.96875l0 16.28125l-3.78125 0zm15.367264 0l-3.78125 0l0 -24.96875l3.78125 0l0 24.96875zm-4.109375 -31.734375q0 -1.296875 0.640625 -1.890625q0.640625 -0.609375 1.59375 -0.609375q0.90625 0 1.5625 0.609375q0.671875 0.609375 0.671875 1.890625q0 1.28125 -0.671875 1.90625q-0.65625 0.625 -1.5625 0.625q-0.953125 0 -1.59375 -0.625q-0.640625 -0.625 -0.640625 -1.90625zm29.207008 31.734375l0 -16.15625q0 -3.046875 -1.390625 -4.546875q-1.390625 -1.515625 -4.34375 -1.515625q-3.921875 0 -5.75 2.125q-1.8125 2.125 -1.8125 7.0l0 13.09375l-3.78125 0l0 -24.96875l3.0625 0l0.625 3.421875l0.171875 0q1.171875 -1.84375 3.265625 -2.859375q2.09375 -1.015625 4.671875 -1.015625q4.515625 0 6.78125 2.171875q2.28125 2.171875 2.28125 6.96875l0 16.28125l-3.78125 0zm26.90181 0l-0.75 -3.546875l-0.171875 0q-1.875 2.34375 -3.734375 3.171875q-1.859375 0.828125 -4.640625 0.828125q-3.703125 0 -5.8125 -1.90625q-2.109375 -1.921875 -2.109375 -5.453125q0 -7.5625 12.09375 -7.921875l4.234375 -0.140625l0 -1.546875q0 -2.9375 -1.265625 -4.328125q-1.25 -1.40625 -4.03125 -1.40625q-3.125 0 -7.0625 1.90625l-1.171875 -2.890625q1.84375 -1.0 4.046875 -1.5625q2.203125 -0.578125 4.40625 -0.578125q4.46875 0 6.625 1.984375q2.15625 1.96875 2.15625 6.34375l0 17.046875l-2.8125 0zm-8.53125 -2.671875q3.53125 0 5.546875 -1.921875q2.015625 -1.9375 2.015625 -5.4375l0 -2.25l-3.78125 0.15625q-4.515625 0.171875 -6.515625 1.40625q-1.984375 1.234375 -1.984375 3.859375q0 2.046875 1.234375 3.125q1.25 1.0625 3.484375 1.0625zm22.916733 2.671875l-3.78125 0l0 -35.453125l3.78125 0l0 35.453125zm37.123566 -3.34375l-0.203125 0q-2.625 3.796875 -7.828125 3.796875q-4.90625 0 -7.625 -3.34375q-2.71875 -3.34375 -2.71875 -9.53125q0 -6.171875 2.734375 -9.578125q2.734375 -3.421875 7.609375 -3.421875q5.078125 0 7.78125 3.6875l0.296875 0l-0.15625 -1.796875l-0.09375 -1.75l0 -10.171875l3.78125 0l0 35.453125l-3.078125 0l-0.5 -3.34375zm-7.5625 0.625q3.875 0 5.609375 -2.09375q1.75 -2.109375 1.75 -6.8125l0 -0.796875q0 -5.296875 -1.765625 -7.5625q-1.765625 -2.265625 -5.640625 -2.265625q-3.328125 0 -5.09375 2.578125q-1.765625 2.578125 -1.765625 7.296875q0 4.78125 1.75 7.21875q1.765625 2.4375 5.15625 2.4375zm29.715622 3.171875q-5.546875 0 -8.75 -3.359375q-3.1875 -3.375 -3.1875 -9.375q0 -6.03125 2.96875 -9.578125q2.96875 -3.5625 7.984375 -3.5625q4.6875 0 7.4218597 3.09375q2.734375 3.078125 2.734375 8.140625l0 2.390625l-17.20311 0q0.125 4.390625 2.21875 6.671875q2.109375 2.28125 5.9375 2.28125q4.03125 0 7.9843597 -1.6875l0 3.375q-2.015625 0.859375 -3.7968597 1.234375q-1.78125 0.375 -4.3125 0.375zm-1.03125 -22.703125q-3.0 0 -4.796875 1.953125q-1.78125 1.953125 -2.109375 5.421875l13.0625 0q0 -3.578125 -1.59375 -5.46875q-1.59375 -1.90625 -4.5625 -1.90625zm27.910172 0.21875l-6.359375 0l0 22.03125l-3.78125 0l0 -22.03125l-4.46875 0l0 -1.703125l4.46875 -1.375l0 -1.390625q0 -9.203125 8.046875 -9.203125q1.984375 0 4.640625 0.796875l-0.984375 3.03125q-2.1875 -0.703125 -3.734375 -0.703125q-2.140625 0 -3.171875 1.421875q-1.015625 1.421875 -1.015625 4.578125l0 1.609375l6.359375 0l0 2.9375zm15.107147 22.484375q-5.546875 0 -8.75 -3.359375q-3.1875 -3.375 -3.1875 -9.375q0 -6.03125 2.96875 -9.578125q2.96875 -3.5625 7.984375 -3.5625q4.6875 0 7.421875 3.09375q2.734375 3.078125 2.734375 8.140625l0 2.390625l-17.203125 0q0.125 4.390625 2.21875 6.671875q2.109375 2.28125 5.9375 2.28125q4.03125 0 7.984375 -1.6875l0 3.375q-2.015625 0.859375 -3.796875 1.234375q-1.78125 0.375 -4.3125 0.375zm-1.03125 -22.703125q-3.0 0 -4.796875 1.953125q-1.78125 1.953125 -2.109375 5.421875l13.0625 0q0 -3.578125 -1.59375 -5.46875q-1.59375 -1.90625 -4.5625 -1.90625zm33.73828 22.25l0 -16.15625q0 -3.046875 -1.390625 -4.546875q-1.390625 -1.515625 -4.34375 -1.515625q-3.921875 0 -5.75 2.125q-1.8125 2.125 -1.8125 7.0l0 13.09375l-3.78125 0l0 -24.96875l3.0625 0l0.625 3.421875l0.171875 0q1.171875 -1.84375 3.265625 -2.859375q2.09375 -1.015625 4.671875 -1.015625q4.515625 0 6.78125 2.171875q2.28125 2.171875 2.28125 6.96875l0 16.28125l-3.78125 0zm21.526794 0.453125q-5.421875 0 -8.390625 -3.328125q-2.96875 -3.34375 -2.96875 -9.453125q0 -6.265625 3.015625 -9.671875q3.015625 -3.421875 8.59375 -3.421875q1.796875 0 3.59375 0.390625q1.8125 0.375 2.828125 0.90625l-1.15625 3.21875q-1.25 -0.515625 -2.734375 -0.84375q-1.484375 -0.328125 -2.625 -0.328125q-7.609375 0 -7.609375 9.703125q0 4.609375 1.859375 7.078125q1.859375 2.453125 5.5 2.453125q3.125 0 6.40625 -1.34375l0 3.34375q-2.5 1.296875 -6.3125 1.296875zm22.789978 0q-5.546875 0 -8.75 -3.359375q-3.1875 -3.375 -3.1875 -9.375q0 -6.03125 2.96875 -9.578125q2.96875 -3.5625 7.984375 -3.5625q4.6875 0 7.421875 3.09375q2.734375 3.078125 2.734375 8.140625l0 2.390625l-17.203125 0q0.125 4.390625 2.21875 6.671875q2.109375 2.28125 5.9375 2.28125q4.03125 0 7.984375 -1.6875l0 3.375q-2.015625 0.859375 -3.796875 1.234375q-1.78125 0.375 -4.3125 0.375zm-1.03125 -22.703125q-3.0 0 -4.796875 1.953125q-1.78125 1.953125 -2.109375 5.421875l13.0625 0q0 -3.578125 -1.59375 -5.46875q-1.59375 -1.90625 -4.5625 -1.90625zm44.873596 15.4375q0 3.484375 -2.59375 5.375q-2.59375 1.890625 -7.28125 1.890625q-4.96875 0 -7.75 -1.5625l0 -3.515625q1.796875 0.90625 3.859375 1.4375q2.0625 0.515625 3.96875 0.515625q2.96875 0 4.5625 -0.9375q1.59375 -0.953125 1.59375 -2.890625q0 -1.453125 -1.265625 -2.484375q-1.265625 -1.046875 -4.921875 -2.453125q-3.5 -1.296875 -4.96875 -2.265625q-1.46875 -0.96875 -2.1875 -2.1875q-0.703125 -1.234375 -0.703125 -2.953125q0 -3.046875 2.46875 -4.8125q2.484375 -1.765625 6.8125 -1.765625q4.03125 0 7.890625 1.640625l-1.34375 3.078125q-3.765625 -1.546875 -6.8125 -1.546875q-2.6875 0 -4.0625 0.84375q-1.359375 0.828125 -1.359375 2.3125q0 1.0 0.515625 1.71875q0.515625 0.703125 1.640625 1.34375q1.140625 0.625 4.375 1.84375q4.453125 1.609375 6.0 3.25q1.5625 1.640625 1.5625 4.125zm27.71051 -5.6875q0 6.09375 -3.078125 9.53125q-3.078125 3.421875 -8.5 3.421875q-3.34375 0 -5.953125 -1.5625q-2.59375 -1.578125 -4.0 -4.515625q-1.40625 -2.9375 -1.40625 -6.875q0 -6.109375 3.046875 -9.515625q3.046875 -3.40625 8.46875 -3.40625q5.25 0 8.328125 3.484375q3.09375 3.484375 3.09375 9.4375zm-19.03125 0q0 4.78125 1.90625 7.28125q1.921875 2.5 5.640625 2.5q3.71875 0 5.640625 -2.484375q1.921875 -2.5 1.921875 -7.296875q0 -4.765625 -1.921875 -7.234375q-1.921875 -2.484375 -5.6875 -2.484375q-3.71875 0 -5.609375 2.4375q-1.890625 2.4375 -1.890625 7.28125zm29.446167 12.5l-3.78125 0l0 -35.453125l3.78125 0l0 35.453125zm11.800751 0l-3.78125 0l0 -24.96875l3.78125 0l0 24.96875zm-4.109375 -31.734375q0 -1.296875 0.640625 -1.890625q0.640625 -0.609375 1.59375 -0.609375q0.90625 0 1.5625 0.609375q0.671875 0.609375 0.671875 1.890625q0 1.28125 -0.671875 1.90625q-0.65625 0.625 -1.5625 0.625q-0.953125 0 -1.59375 -0.625q-0.640625 -0.625 -0.640625 -1.90625zm22.097626 32.1875q-5.421875 0 -8.390625 -3.328125q-2.96875 -3.34375 -2.96875 -9.453125q0 -6.265625 3.015625 -9.671875q3.015625 -3.421875 8.59375 -3.421875q1.796875 0 3.59375 0.390625q1.8125 0.375 2.828125 0.90625l-1.15625 3.21875q-1.25 -0.515625 -2.734375 -0.84375q-1.484375 -0.328125 -2.625 -0.328125q-7.609375 0 -7.609375 9.703125q0 4.609375 1.859375 7.078125q1.859375 2.453125 5.5 2.453125q3.125 0 6.40625 -1.34375l0 3.34375q-2.5 1.296875 -6.3125 1.296875zm16.024353 -0.453125l-3.78125 0l0 -24.96875l3.78125 0l0 24.96875zm-4.109375 -31.734375q0 -1.296875 0.640625 -1.890625q0.640625 -0.609375 1.59375 -0.609375q0.90625 0 1.5625 0.609375q0.671875 0.609375 0.671875 1.890625q0 1.28125 -0.671875 1.90625q-0.65625 0.625 -1.5625 0.625q-0.953125 0 -1.59375 -0.625q-0.640625 -0.625 -0.640625 -1.90625zm20.191345 29.0625q1.0 0 1.921875 -0.140625q0.9375 -0.15625 1.484375 -0.3125l0 2.890625q-0.609375 0.296875 -1.8125 0.484375q-1.1875 0.203125 -2.140625 0.203125q-7.2499695 0 -7.2499695 -7.625l0 -14.859375l-3.578125 0l0 -1.828125l3.578125 -1.5625l1.59375 -5.328125l2.1875 0l0 5.78125l7.2499695 0l0 2.9375l-7.2499695 0l0 14.703125q0 2.25 1.0625 3.453125q1.078125 1.203125 2.9530945 1.203125zm29.955322 -9.828125q0 6.09375 -3.078125 9.53125q-3.078125 3.421875 -8.5 3.421875q-3.34375 0 -5.953125 -1.5625q-2.59375 -1.578125 -4.0 -4.515625q-1.40625 -2.9375 -1.40625 -6.875q0 -6.109375 3.046875 -9.515625q3.046875 -3.40625 8.46875 -3.40625q5.25 0 8.328125 3.484375q3.09375 3.484375 3.09375 9.4375zm-19.03125 0q0 4.78125 1.90625 7.28125q1.921875 2.5 5.640625 2.5q3.71875 0 5.640625 -2.484375q1.921875 -2.5 1.921875 -7.296875q0 -4.765625 -1.921875 -7.234375q-1.921875 -2.484375 -5.6875 -2.484375q-3.71875 0 -5.609375 2.4375q-1.890625 2.4375 -1.890625 7.28125zm37.055542 -12.921875q1.65625 0 2.984375 0.265625l-0.53125 3.515625q-1.546875 -0.34375 -2.734375 -0.34375q-3.03125 0 -5.1875 2.46875q-2.140625 2.453125 -2.140625 6.125l0 13.390625l-3.78125 0l0 -24.96875l3.109375 0l0.4375 4.625l0.1875 0q1.390625 -2.4375 3.34375 -3.75q1.953125 -1.328125 4.3125 -1.328125zm23.748352 18.609375q0 3.484375 -2.59375 5.375q-2.59375 1.890625 -7.28125 1.890625q-4.96875 0 -7.75 -1.5625l0 -3.515625q1.796875 0.90625 3.859375 1.4375q2.0625 0.515625 3.96875 0.515625q2.96875 0 4.5625 -0.9375q1.59375 -0.953125 1.59375 -2.890625q0 -1.453125 -1.265625 -2.484375q-1.265625 -1.046875 -4.921875 -2.453125q-3.5 -1.296875 -4.96875 -2.265625q-1.46875 -0.96875 -2.1875 -2.1875q-0.703125 -1.234375 -0.703125 -2.953125q0 -3.046875 2.46875 -4.8125q2.484375 -1.765625 6.8125 -1.765625q4.03125 0 7.890625 1.640625l-1.34375 3.078125q-3.765625 -1.546875 -6.8125 -1.546875q-2.6875 0 -4.0625 0.84375q-1.359375 0.828125 -1.359375 2.3125q0 1.0 0.515625 1.71875q0.515625 0.703125 1.640625 1.34375q1.140625 0.625 4.375 1.84375q4.453125 1.609375 6.0 3.25q1.5625 1.640625 1.5625 4.125z" fill-rule="nonzero"/></g></svg>