<svg version="1.1" viewBox="0.0 0.0 619.2257217847769 246.62992125984252" fill="none" stroke="none" stroke-linecap="square" stroke-miterlimit="10" xmlns:xlink="http://www.w3.org/1999/xlink" xmlns="http://www.w3.org/2000/svg"><clipPath id="p.0"><path d="m0 0l619.2257 0l0 246.62993l-619.2257 0l0 -246.62993z" clip-rule="nonzero"/></clipPath><g clip-path="url(#p.0)"><path fill="#000000" fill-opacity="0.0" d="m0 0l619.2257 0l0 246.62993l-619.2257 0z" fill-rule="evenodd"/><path fill="#000000" fill-opacity="0.0" d="m0 0l656.34644 0l0 149.88977l-656.34644 0z" fill-rule="evenodd"/><path fill="#163f4a" d="m14.9375 97.505005q0 -15.5625 7.375 -25.03125q7.375 -9.46875 19.3125 -9.46875q11.875 0 18.8125 8.125l0 -35.25l11.5625 0l0 96.0l-10.625 0l-0.5625 -7.25q-6.9375 8.5 -19.3125 8.5q-11.75 0 -19.15625 -9.625q-7.40625 -9.625 -7.40625 -25.125l0 -0.875zm11.5625 1.3125q0 11.5 4.75 18.0q4.75 6.5 13.125 6.5q11.0 0 16.0625 -9.875l0 -31.0625q-5.1875 -9.5625 -15.9375 -9.5625q-8.5 0 -13.25 6.5625q-4.75 6.5625 -4.75 19.4375zm105.1875 33.0625q-1.0 -2.0 -1.625 -7.125q-8.0625 8.375 -19.25 8.375q-10.0 0 -16.40625 -5.65625q-6.40625 -5.65625 -6.40625 -14.34375q0 -10.5625 8.03125 -16.40625q8.03125 -5.84375 22.59375 -5.84375l11.25 0l0 -5.3125q0 -6.0625 -3.625 -9.65625q-3.625 -3.59375 -10.6875 -3.59375q-6.1875 0 -10.375 3.125q-4.1875 3.125 -4.1875 7.5625l-11.625 0q0 -5.0625 3.59375 -9.78125q3.59375 -4.71875 9.75 -7.46875q6.15625 -2.75 13.53125 -2.75q11.6875 0 18.3125 5.84375q6.625 5.84375 6.875 16.09375l0 31.125q0 9.3125 2.375 14.8125l0 1.0l-12.125 0zm-19.1875 -8.8125q5.4375 0 10.3125 -2.8125q4.875 -2.8125 7.0625 -7.3125l0 -13.875l-9.0625 0q-21.25 0 -21.25 12.4375q0 5.4375 3.625 8.5q3.625 3.0625 9.3125 3.0625zm68.4375 -6.875l16.75 -51.9375l11.8125 0l-24.25 67.625l-8.8125 0l-24.5 -67.625l11.8125 0l17.1875 51.9375zm52.25 15.6875l-11.5625 0l0 -67.625l11.5625 0l0 67.625zm-12.5 -85.5625q0 -2.8125 1.71875 -4.75q1.71875 -1.9375 5.09375 -1.9375q3.375 0 5.125 1.9375q1.75 1.9375 1.75 4.75q0 2.8125 -1.75 4.6875q-1.75 1.875 -5.125 1.875q-3.375 0 -5.09375 -1.875q-1.71875 -1.875 -1.71875 -4.6875zm59.0625 86.8125q-13.75 0 -22.375 -9.03125q-8.625 -9.03125 -8.625 -24.15625l0 -2.125q0 -10.0625 3.84375 -17.96875q3.84375 -7.90625 10.75 -12.375q6.90625 -4.46875 14.96875 -4.46875q13.1875 0 20.5 8.6875q7.3125 8.6875 7.3125 24.875l0 4.8125l-45.8125 0q0.25 10.0 5.84375 16.15625q5.59375 6.15625 14.21875 6.15625q6.125 0 10.375 -2.5q4.25 -2.5 7.4375 -6.625l7.0625 5.5q-8.5 13.0625 -25.5 13.0625zm-1.4375 -60.625q-7.0 0 -11.75 5.09375q-4.75 5.09375 -5.875 14.28125l33.875 0l0 -0.875q-0.5 -8.8125 -4.75 -13.65625q-4.25 -4.84375 -11.5 -4.84375zm80.5625 41.4375q0 -4.6875 -3.53125 -7.28125q-3.53125 -2.59375 -12.3125 -4.46875q-8.78125 -1.875 -13.9375 -4.5q-5.15625 -2.625 -7.625 -6.25q-2.46875 -3.625 -2.46875 -8.625q0 -8.3125 7.03125 -14.0625q7.03125 -5.75 17.96875 -5.75q11.5 0 18.65625 5.9375q7.15625 5.9375 7.15625 15.1875l-11.625 0q0 -4.75 -4.03125 -8.1875q-4.03125 -3.4375 -10.15625 -3.4375q-6.3125 0 -9.875 2.75q-3.5625 2.75 -3.5625 7.1875q0 4.1875 3.3125 6.3125q3.3125 2.125 11.96875 4.0625q8.65625 1.9375 14.03125 4.625q5.375 2.6875 7.96875 6.46875q2.59375 3.78125 2.59375 9.21875q0 9.0625 -7.25 14.53125q-7.25 5.46875 -18.8125 5.46875q-8.125 0 -14.375 -2.875q-6.25 -2.875 -9.78125 -8.03125q-3.53125 -5.15625 -3.53125 -11.15625l11.5625 0q0.3125 5.8125 4.65625 9.21875q4.34375 3.40625 11.46875 3.40625q6.5625 0 10.53125 -2.65625q3.96875 -2.65625 3.96875 -7.09375z" fill-rule="nonzero"/><path fill="#3d5d64" d="m383.0625 107.442505q0 -6.5625 3.65625 -12.0625q3.65625 -5.5 13.96875 -12.8125q-6.0625 -7.375 -8.125 -11.875q-2.0625 -4.5 -2.0625 -8.9375q0 -10.375 6.125 -16.25q6.125 -5.875 16.625 -5.875q9.375 0 15.5 5.46875q6.125 5.46875 6.125 13.78125q0 5.5 -2.78125 10.15625q-2.78125 4.65625 -9.71875 9.78125l-6.6875 4.9375l20.25 24.1875q4.25 -8.125 4.25 -18.0625l10.4375 0q0 15.9375 -7.6875 26.4375l13.0 15.5625l-13.875 0l-6.0625 -7.1875q-4.625 4.125 -10.84375 6.28125q-6.21875 2.15625 -12.65625 2.15625q-13.3125 0 -21.375 -7.0625q-8.0625 -7.0625 -8.0625 -18.625zm29.4375 16.25q9.1875 0 16.8125 -7.0l-22.1875 -26.5625l-2.0625 1.5q-10.4375 7.6875 -10.4375 15.8125q0 7.375 4.78125 11.8125q4.78125 4.4375 13.09375 4.4375zm-10.4375 -62.3125q0 6.0 7.375 15.0l7.375 -5.1875q4.25 -3.0 5.8125 -5.71875q1.5625 -2.71875 1.5625 -6.59375q0 -4.1875 -3.125 -6.96875q-3.125 -2.78125 -7.875 -2.78125q-5.125 0 -8.125 3.46875q-3.0 3.46875 -3.0 8.78125z" fill-rule="nonzero"/><path fill="#76919d" d="m492.1875 123.692505q6.1875 0 10.8125 -3.75q4.625 -3.75 5.125 -9.375l10.9375 0q-0.3125 5.8125 -4.0 11.0625q-3.6875 5.25 -9.84375 8.375q-6.15625 3.125 -13.03125 3.125q-13.8125 0 -21.96875 -9.21875q-8.15625 -9.21875 -8.15625 -25.21875l0 -1.9375q0 -9.875 3.625 -17.5625q3.625 -7.6875 10.40625 -11.9375q6.78125 -4.25 16.03125 -4.25q11.375 0 18.90625 6.8125q7.53125 6.8125 8.03125 17.6875l-10.9375 0q-0.5 -6.5625 -4.96875 -10.78125q-4.46875 -4.21875 -11.03125 -4.21875q-8.8125 0 -13.65625 6.34375q-4.84375 6.34375 -4.84375 18.34375l0 2.1875q0 11.6875 4.8125 18.0q4.8125 6.3125 13.75 6.3125zm36.8125 -26.25q0 -9.9375 3.90625 -17.875q3.90625 -7.9375 10.875 -12.25q6.96875 -4.3125 15.90625 -4.3125q13.8125 0 22.34375 9.5625q8.53125 9.5625 8.53125 25.4375l0 0.8125q0 9.875 -3.78125 17.71875q-3.78125 7.84375 -10.8125 12.21875q-7.03125 4.375 -16.15625 4.375q-13.75 0 -22.28125 -9.5625q-8.53125 -9.5625 -8.53125 -25.3125l0 -0.8125zm11.625 1.375q0 11.25 5.21875 18.0625q5.21875 6.8125 13.96875 6.8125q8.8125 0 14.0 -6.90625q5.1875 -6.90625 5.1875 -19.34375q0 -11.125 -5.28125 -18.03125q-5.28125 -6.90625 -14.03125 -6.90625q-8.5625 0 -13.8125 6.8125q-5.25 6.8125 -5.25 19.5z" fill-rule="nonzero"/><path fill="#000000" fill-opacity="0.0" d="m11.934383 149.88058l763.74805 0l0 89.102356l-763.74805 0z" fill-rule="evenodd"/><path fill="#b4b5b8" d="m35.32501 205.42932q-5.578125 0 -8.640625 -3.4375q-3.046875 -3.4375 -3.046875 -9.71875q0 -6.4375 3.09375 -9.953125q3.109375 -3.515625 8.859375 -3.515625q1.84375 0 3.6875 0.40625q1.859375 0.390625 2.921875 0.921875l-1.203125 3.3125q-1.28125 -0.515625 -2.8125 -0.859375q-1.515625 -0.34375 -2.6875 -0.34375q-7.828125 0 -7.828125 9.984375q0 4.734375 1.90625 7.265625q1.90625 2.53125 5.65625 2.53125q3.21875 0 6.59375 -1.375l0 3.4375q-2.578125 1.34375 -6.5 1.34375zm8.5078125 -26.15625l4.171875 0l5.625 14.640625q1.859375 5.015625 2.296875 7.25l0.1875 0q0.3125 -1.203125 1.28125 -4.09375q0.96875 -2.890625 6.359375 -17.796875l4.171871 0l-11.031246 29.25q-1.640625 4.34375 -3.84375 6.1562653q-2.1875 1.8125 -5.375 1.8125q-1.78125 0 -3.515625 -0.390625l0 -3.1250153q1.296875 0.28125 2.890625 0.28125q4.0 0 5.71875 -4.5l1.421875 -3.65625l-10.359375 -25.828125zm39.843746 3.015625l-6.53125 0l0 22.671875l-3.890625 0l0 -22.671875l-4.59375 0l0 -1.75l4.59375 -1.40625l0 -1.4375q0 -9.46875 8.265625 -9.46875q2.046875 0 4.78125 0.828125l-1.0 3.109375q-2.25 -0.71875 -3.84375 -0.71875q-2.203125 0 -3.265625 1.46875q-1.046875 1.453125 -1.046875 4.6875l0 1.671875l6.53125 0l0 3.015625zm16.40625 -3.484375q1.71875 0 3.078125 0.28125l-0.546875 3.609375q-1.59375 -0.359375 -2.8125 -0.359375q-3.109375 0 -5.328125 2.53125q-2.21875 2.53125 -2.21875 6.3125l0 13.78125l-3.890625 0l0 -25.6875l3.21875 0l0.4375 4.75l0.1875 0q1.4375 -2.5 3.453125 -3.859375q2.015625 -1.359375 4.421875 -1.359375zm18.734375 26.625q-5.703125 0 -9.0 -3.46875q-3.28125 -3.46875 -3.28125 -9.640625q0 -6.203125 3.046875 -9.859375q3.0625 -3.65625 8.21875 -3.65625q4.828125 0 7.640625 3.171875q2.8125076 3.171875 2.8125076 8.375l0 2.46875l-17.687508 0q0.109375 4.515625 2.28125 6.859375q2.171875 2.34375 6.109375 2.34375q4.140625 0 8.203125 -1.734375l0 3.46875q-2.0625 0.890625 -3.90625 1.28125q-1.84375 0.390625 -4.4375 0.390625zm-1.0625 -23.375q-3.09375 0 -4.9375 2.015625q-1.828125 2.015625 -2.15625 5.578125l13.421875 0q0 -3.671875 -1.640625 -5.625q-1.640625 -1.96875 -4.6875 -1.96875zm21.023445 22.90625l-3.890625 0l0 -25.6875l3.890625 0l0 25.6875zm-4.21875 -32.65625q0 -1.328125 0.65625 -1.953125q0.65625 -0.625 1.640625 -0.625q0.9375 0 1.609375 0.640625q0.6875 0.625 0.6875 1.9375q0 1.3125 -0.6875 1.96875q-0.671875 0.640625 -1.609375 0.640625q-0.984375 0 -1.640625 -0.640625q-0.65625 -0.65625 -0.65625 -1.96875zm20.765625 29.90625q1.03125 0 1.984375 -0.140625q0.96875 -0.15625 1.53125 -0.328125l0 2.984375q-0.625 0.3125 -1.859375 0.5q-1.234375 0.203125 -2.21875 0.203125q-7.453125 0 -7.453125 -7.859375l0 -15.28125l-3.671875 0l0 -1.875l3.671875 -1.609375l1.640625 -5.484375l2.25 0l0 5.953125l7.453125 0l0 3.015625l-7.453125 0l0 15.125q0 2.3125 1.09375 3.5625q1.109375 1.234375 3.03125 1.234375zm26.226562 2.75l0 -16.625q0 -3.140625 -1.4375 -4.6875q-1.421875 -1.546875 -4.46875 -1.546875q-4.046875 0 -5.921875 2.203125q-1.859375 2.203125 -1.859375 7.21875l0 13.4375l-3.890625 0l0 -36.46875l3.890625 0l0 11.03125q0 2.0 -0.1875 3.3125l0.234375 0q1.15625 -1.859375 3.265625 -2.921875q2.125 -1.0625 4.84375 -1.0625q4.71875 0 7.0625 2.234375q2.359375 2.234375 2.359375 7.109375l0 16.765625l-3.890625 0zm32.867188 0l-4.71875 -15.078125q-0.4375 -1.375 -1.65625 -6.28125l-0.1875 0q-0.9375 4.109375 -1.640625 6.328125l-4.859375 15.03125l-4.5 0l-7.0 -25.6875l4.078125 0q2.484375 9.671875 3.78125 14.734375q1.296875 5.0625 1.484375 6.828125l0.1875 0q0.265625 -1.34375 0.828125 -3.453125q0.578125 -2.125 1.0 -3.375l4.71875 -14.734375l4.21875 0l4.59375 14.734375q1.3125 4.03125 1.78125 6.78125l0.1875 0q0.09375 -0.84375 0.5 -2.59375q0.40625 -1.765625 4.890625 -18.921875l4.03125 0l-7.109375 25.6875l-4.609375 0zm12.2734375 -25.6875l4.171875 0l5.625 14.640625q1.859375 5.015625 2.296875 7.25l0.1875 0q0.3125 -1.203125 1.28125 -4.09375q0.96875 -2.890625 6.359375 -17.796875l4.171875 0l-11.03125 29.25q-1.640625 4.34375 -3.84375 6.1562653q-2.1875 1.8125 -5.375 1.8125q-1.78125 0 -3.515625 -0.390625l0 -3.1250153q1.296875 0.28125 2.890625 0.28125q4.0 0 5.71875 -4.5l1.421875 -3.65625l-10.359375 -25.828125zm39.984375 -0.46875q1.71875 0 3.078125 0.28125l-0.546875 3.609375q-1.59375 -0.359375 -2.8125 -0.359375q-3.109375 0 -5.328125 2.53125q-2.21875 2.53125 -2.21875 6.3125l0 13.78125l-3.890625 0l0 -25.6875l3.21875 0l0.4375 4.75l0.1875 0q1.4375 -2.5 3.453125 -3.859375q2.015625 -1.359375 4.421875 -1.359375zm52.734375 -10.3125l3.3125 0l0 48.093765l-3.3125 0l0 -48.093765zm85.4375 29.453125q0 3.59375 -2.671875 5.546875q-2.671875 1.9375 -7.5 1.9375q-5.109375 0 -7.96875 -1.625l0 -3.609375q1.84375 0.9375 3.96875 1.484375q2.125 0.53125 4.09375 0.53125q3.046875 0 4.6875 -0.96875q1.640625 -0.96875 1.640625 -2.96875q0 -1.5 -1.3125 -2.5625q-1.296875 -1.0625 -5.0625 -2.515625q-3.59375 -1.34375 -5.109375 -2.328125q-1.5 -1.0 -2.25 -2.265625q-0.734375 -1.265625 -0.734375 -3.03125q0 -3.140625 2.546875 -4.953125q2.5625 -1.8125 7.015625 -1.8125q4.15625 0 8.109375 1.6875l-1.375 3.15625q-3.875 -1.59375 -7.015625 -1.59375q-2.765625 0 -4.171875 0.875q-1.40625 0.859375 -1.40625 2.390625q0 1.03125 0.53125 1.765625q0.53125 0.71875 1.703125 1.375q1.171875 0.65625 4.5 1.890625q4.5625 1.671875 6.171875 3.359375q1.609375 1.6875 1.609375 4.234375zm28.492188 -5.859375q0 6.28125 -3.171875 9.8125q-3.15625 3.53125 -8.734375 3.53125q-3.4375 0 -6.109375 -1.609375q-2.671875 -1.625 -4.125 -4.640625q-1.453125 -3.03125 -1.453125 -7.09375q0 -6.28125 3.140625 -9.78125q3.140625 -3.5 8.71875 -3.5q5.390625 0 8.5625 3.59375q3.171875 3.578125 3.171875 9.6875zm-19.5625 0q0 4.921875 1.96875 7.5q1.96875 2.578125 5.78125 2.578125q3.828125 0 5.796875 -2.5625q1.984375 -2.5625 1.984375 -7.515625q0 -4.890625 -1.984375 -7.4375q-1.96875 -2.546875 -5.84375 -2.546875q-3.8125 0 -5.765625 2.515625q-1.9375 2.5 -1.9375 7.46875zm30.273438 12.875l-3.890625 0l0 -36.46875l3.890625 0l0 36.46875zm12.140625 0l-3.890625 0l0 -25.6875l3.890625 0l0 25.6875zm-4.21875 -32.65625q0 -1.328125 0.65625 -1.953125q0.65625 -0.625 1.640625 -0.625q0.9375 0 1.609375 0.640625q0.6875 0.625 0.6875 1.9375q0 1.3125 -0.6875 1.96875q-0.671875 0.640625 -1.609375 0.640625q-0.984375 0 -1.640625 -0.640625q-0.65625 -0.65625 -0.65625 -1.96875zm22.734375 33.125q-5.578125 0 -8.640625 -3.4375q-3.046875 -3.4375 -3.046875 -9.71875q0 -6.4375 3.09375 -9.953125q3.109375 -3.515625 8.859375 -3.515625q1.84375 0 3.6875 0.40625q1.859375 0.390625 2.921875 0.921875l-1.203125 3.3125q-1.28125 -0.515625 -2.8125 -0.859375q-1.515625 -0.34375 -2.6875 -0.34375q-7.828125 0 -7.828125 9.984375q0 4.734375 1.90625 7.265625q1.90625 2.53125 5.65625 2.53125q3.21875 0 6.59375 -1.375l0 3.4375q-2.578125 1.34375 -6.5 1.34375zm16.476562 -0.46875l-3.890625 0l0 -25.6875l3.890625 0l0 25.6875zm-4.21875 -32.65625q0 -1.328125 0.65625 -1.953125q0.65625 -0.625 1.640625 -0.625q0.9375 0 1.609375 0.640625q0.6875 0.625 0.6875 1.9375q0 1.3125 -0.6875 1.96875q-0.671875 0.640625 -1.609375 0.640625q-0.984375 0 -1.640625 -0.640625q-0.65625 -0.65625 -0.65625 -1.96875zm20.765625 29.90625q1.03125 0 1.984375 -0.140625q0.96875 -0.15625 1.53125 -0.328125l0 2.984375q-0.625 0.3125 -1.859375 0.5q-1.234375 0.203125 -2.21875 0.203125q-7.453125 0 -7.453125 -7.859375l0 -15.28125l-3.671875 0l0 -1.875l3.671875 -1.609375l1.640625 -5.484375l2.25 0l0 5.953125l7.453125 0l0 3.015625l-7.453125 0l0 15.125q0 2.3125 1.09375 3.5625q1.109375 1.234375 3.03125 1.234375zm30.820312 -10.125q0 6.28125 -3.171875 9.8125q-3.15625 3.53125 -8.734375 3.53125q-3.4375 0 -6.109375 -1.609375q-2.671875 -1.625 -4.125 -4.640625q-1.453125 -3.03125 -1.453125 -7.09375q0 -6.28125 3.140625 -9.78125q3.140625 -3.5 8.71875 -3.5q5.390625 0 8.5625 3.59375q3.171875 3.578125 3.171875 9.6875zm-19.5625 0q0 4.921875 1.96875 7.5q1.96875 2.578125 5.78125 2.578125q3.828125 0 5.796875 -2.5625q1.984375 -2.5625 1.984375 -7.515625q0 -4.890625 -1.984375 -7.4375q-1.96875 -2.546875 -5.84375 -2.546875q-3.8125 0 -5.765625 2.515625q-1.9375 2.5 -1.9375 7.46875zm38.101562 -13.28125q1.71875 0 3.078125 0.28125l-0.546875 3.609375q-1.59375 -0.359375 -2.8125 -0.359375q-3.109375 0 -5.328125 2.53125q-2.21875 2.53125 -2.21875 6.3125l0 13.78125l-3.890625 0l0 -25.6875l3.21875 0l0.4375 4.75l0.1875 0q1.4375 -2.5 3.453125 -3.859375q2.015625 -1.359375 4.421875 -1.359375zm24.453125 19.140625q0 3.59375 -2.671875 5.546875q-2.671875 1.9375 -7.5 1.9375q-5.109375 0 -7.96875 -1.625l0 -3.609375q1.84375 0.9375 3.96875 1.484375q2.125 0.53125 4.09375 0.53125q3.046875 0 4.6875 -0.96875q1.640625 -0.96875 1.640625 -2.96875q0 -1.5 -1.3125 -2.5625q-1.296875 -1.0625 -5.0625 -2.515625q-3.59375 -1.34375 -5.109375 -2.328125q-1.5 -1.0 -2.25 -2.265625q-0.734375 -1.265625 -0.734375 -3.03125q0 -3.140625 2.546875 -4.953125q2.5625 -1.8125 7.015625 -1.8125q4.15625 0 8.109375 1.6875l-1.375 3.15625q-3.875 -1.59375 -7.015625 -1.59375q-2.765625 0 -4.171875 0.875q-1.40625 0.859375 -1.40625 2.390625q0 1.03125 0.53125 1.765625q0.53125 0.71875 1.703125 1.375q1.171875 0.65625 4.5 1.890625q4.5625 1.671875 6.171875 3.359375q1.609375 1.6875 1.609375 4.234375z" fill-rule="nonzero"/></g></svg>